<?xml version="1.0" standalone="no"?>
<!DOCTYPE svg PUBLIC "-//W3C//DTD SVG 1.1//EN" "http://www.w3.org/Graphics/SVG/1.1/DTD/svg11.dtd">
<svg xmlns="http://www.w3.org/2000/svg">
<metadata>Copyright (C) 2017 by original authors @ fontello.com</metadata>
<defs>
<font id="fontello" horiz-adv-x="1000" >
<font-face font-family="fontello" font-weight="400" font-stretch="normal" units-per-em="1000" ascent="850" descent="-150" />
<missing-glyph horiz-adv-x="1000" />
<glyph glyph-name="basın-kiti" unicode="&#xe800;" d="M919-83c-3 0-6 0-9 0-1 0-3 0-4 0h-809c-53 0-97 43-97 97v756c0 8 6 13 13 13h839c7 0 13-5 13-13v-108c0 0 0 0 0 0h109c14 0 26-12 26-26v-639c0-44-36-80-81-80z m55 719l-109 0 0-639c0-30 24-54 54-54 30 0 55 24 55 54v639z m-948 121v-743c0-39 32-71 71-71h763c-14 14-21 34-21 54v760h-813z m597-711h-98c-8 0-14 6-14 13s6 13 14 13h98c7 0 13-6 13-13s-6-13-13-13z m175 1h-115c-7 0-13 6-13 13v133c0 7 6 13 13 13h115c7 0 13-6 13-13v-133c0-7-6-13-13-13z m-102 26h88v107h-88v-107z m-233-26h-161c-7 0-13 6-13 13s6 13 13 13h161c7 0 13-6 13-13s-6-13-13-13z m-225 0h-153c-7 0-13 6-13 13v269c0 7 6 13 13 13h153c7 0 13-6 13-13v-269c0-7-6-13-13-13z m-139 26h125v243h-125v-243z m495 40h-69c-8 0-14 6-14 13s6 13 14 13h69c7 0 13-6 13-13s-6-13-13-13z m-179 1h-113c-7 0-13 6-13 13s6 13 13 13h113c7 0 13-6 13-13s-6-13-13-13z m208 66h-98c-8 0-14 6-14 13s6 14 14 14h98c7 0 13-6 13-14s-6-13-13-13z m-160 1h-161c-7 0-13 6-13 13s6 14 13 14h161c7 0 13-6 13-14s-6-13-13-13z m289 67h-69c-7 0-13 5-13 13s6 13 13 13h69c7 0 13-6 13-13s-6-13-13-13z m-158 0h-69c-8 0-14 5-14 13s6 13 14 13h69c7 0 13-6 13-13s-6-13-13-13z m-179 0h-113c-7 0-13 6-13 14s6 13 13 13h113c7 0 13-6 13-13s-6-14-13-14z m372 67h-104c-7 0-13 6-13 13s6 13 13 13h104c8 0 13-6 13-13s-5-13-13-13z m-158 0h-104c-8 0-14 6-14 13s6 13 14 13h104c7 0 13-6 13-13s-6-13-13-13z m-169 1h-158c-7 0-13 6-13 13s6 13 13 13h158c7 0 13-6 13-13s-6-13-13-13z m289 93h-220c-8 0-14 6-14 13s6 13 14 13h220c7 0 13-5 13-13s-6-13-13-13z m-278 0h-386c-7 0-13 6-13 13v269c0 8 6 14 13 14h386c7 0 13-6 13-14v-269c0-7-6-13-13-13z m-372 26h358v243h-358v-243z m677 41h-247c-8 0-14 6-14 14s6 13 14 13h247c8 0 14-6 14-13s-6-14-14-14z m-27 68h-220c-8 0-14 6-14 13s6 13 14 13h220c7 0 13-6 13-13s-6-13-13-13z m-33 67h-187c-8 0-14 6-14 13s6 13 14 13h187c7 0 13-6 13-13s-6-13-13-13z m60 67h-247c-8 0-14 6-14 13s6 14 14 14h247c8 0 14-6 14-14s-6-13-14-13z" horiz-adv-x="1000" />

<glyph glyph-name="basın-personeli" unicode="&#xe801;" d="M820 335h-24c-17 0-33 10-41 26l-13 24c-13 27-40 44-70 44h-23v34c12 5 22 15 27 27 37 0 69 27 76 63l19 94c2 9 3 18 3 28v39 11 57c0 38-31 68-68 68h-224c-38 0-68-30-68-68v-68c0-1 0-2 0-3 0-1 0-1 0-2v-34c0-10 1-19 2-28l19-94c7-36 39-63 76-63 5-12 15-22 27-27v-34h-23c-30 0-57-17-70-44l-12-24c-8-16-24-26-42-26h-70c0 26-21 47-47 47h-31c-26 0-48-21-48-47h-15c-43 0-79-35-79-79v-327c0-44 36-79 79-79h79 15 546c43 0 79 35 79 79v327c0 44-36 79-79 79z m-172 219h-108v11c0 10 8 19 18 19h71c10 0 19-9 19-19v-11z m-90-63c-10 0-18 8-18 18v12h108v-12c0-10-9-18-19-18h-71z m-112 291c0 20 16 36 36 36h224c19 0 35-16 35-36v-57-11c0-20-16-36-35-36h-224c-20 0-36 16-36 36v68z m21-223l-19 94c0 1 0 1 0 2 10-6 21-9 34-9h224c12 0 24 3 34 9-1-1-1-1-1-2l-19-94c-3-19-20-34-40-36v42c0 28-23 51-51 51h-71c-28 0-51-23-51-51v-42c-20 2-36 17-40 36z m104-100h46v-30h-46v30z m-297-577v328c0 16 14 30 30 30v-327c0-17-13-30-30-31z m-31 467h31c8 0 14-6 15-14h-61c0 8 6 14 15 14z m-109-420v327c0 26 21 47 46 47h124v-30c-34-1-62-29-62-63v-328h-62c-25 0-46 21-46 47z m732 0c0-26-21-47-46-47h-491c5 9 8 20 8 31v390h54c30 0 57 16 71 43l12 25c8 15 24 25 41 25h157c18 0 34-10 42-25l12-25c13-27 40-43 70-43h24c25 0 46-21 46-47v-327z m-343 420h141c9 0 16 8 16 17s-7 16-16 16h-141c-8 0-16-7-16-16s8-17 16-17z m71-76c-82 0-149-67-149-149s67-149 149-149 149 67 149 149-67 149-149 149z m0-266c-65 0-117 53-117 117s52 116 117 116 116-52 116-116-52-117-116-117z m0 188c-39 0-71-32-71-71s32-71 71-71 71 32 71 71-32 71-71 71z m0-110c-22 0-39 18-39 39s17 38 39 38 38-17 38-38-17-39-38-39z m195 188c-13 0-25-5-33-14-39 46-97 76-162 76-117 0-212-95-212-211s95-212 212-212 211 95 211 212c0 19-3 37-7 55 22 4 38 23 38 46 0 26-21 48-47 48z m-195-328c-99 0-179 80-179 179s80 179 179 179 179-81 179-179-81-179-179-179z m195 265c-1 0-2 0-3 0-3 8-7 15-11 22 3 5 8 8 14 8 8 0 15-7 15-15s-7-15-15-15z m-297 545h203c9 0 16 7 16 16 0 9-7 17-16 17h-203c-9 0-16-8-16-17 0-9 7-16 16-16z m0-47h203c9 0 16 8 16 17s-7 16-16 16h-203c-9 0-16-7-16-16s7-17 16-17z" horiz-adv-x="1000" />

<glyph glyph-name="çıkış-yap" unicode="&#xe802;" d="M0 603v-506c0-70 57-127 127-127h409c70 0 127 57 127 127v82c0 14-12 25-26 25s-25-11-25-25v-82c0-42-34-77-76-77h-409c-43 0-77 35-77 77v506c0 42 34 77 77 77h409c42 0 77-35 77-77v-82c0-14 11-25 25-25s25 11 25 25v82c0 70-57 127-127 127h-409c-70 0-127-57-127-127z m786-442c5-5 11-7 18-7s13 2 18 7l171 172c9 9 9 25 0 35l-171 171c-10 10-26 10-36 0s-9-26 0-35l129-129h-469c-14 0-25-11-25-25 0-14 11-25 25-25h469l-129-129c-10-9-10-25 0-35z" horiz-adv-x="1000" />

<glyph glyph-name="davet" unicode="&#xe803;" d="M479 267l-19-32c-3-5-3-11 0-16 2-5 8-8 13-8h11v-30c0-9 7-16 16-16s16 7 16 16v30h11c8 0 16 7 16 16s-8 16-16 16h-25l10 18c48 32 96 77 131 122 46 58 70 117 70 169 0 117-96 213-213 213s-213-96-213-213c0-52 24-111 70-169 33-42 77-84 122-116z m21 466c100 0 181-81 181-181 0-45-22-97-63-150-32-40-74-80-118-111-43 31-86 71-118 111-41 53-63 105-63 150 0 100 81 181 181 181z m0-64c9 0 16 7 16 16s-7 16-16 16c-82 0-149-67-149-149 0-9 7-16 16-16s16 7 16 16c0 65 53 117 117 117z m498-811c0 0 0 0 0 1 0 0 0 0 1 0 0 0 0 1 0 1 0 0 0 0 0 1 0 0 0 0 0 0 0 1 1 1 1 1 0 0 0 1 0 1 0 0 0 1 0 1 0 0 0 0 0 1 0 0 0 0 0 0 0 1 0 1 0 1v608c0 0 0 0 0 0 0 0 0 1 0 1 0 0 0 0 0 1 0 0 0 0 0 0 0 1 0 1 0 1 0 0-1 1-1 1 0 0 0 0 0 1 0 0 0 0 0 0 0 1 0 1 0 1-1 0-1 1-1 1 0 0 0 0 0 1 0 0 0 0-1 0 0 0 0 1 0 1 0 0 0 0 0 0 0 0 0 0 0 1-1 0-1 0-1 0 0 0 0 1-1 1 0 0 0 0 0 0 0 0 0 1-1 1 0 0 0 0 0 0 0 0-1 1-1 1 0 0 0 0 0 0-1 0-1 0-1 1 0 0-1 0-1 0 0 0 0 0-1 0 0 0 0 0 0 1-1 0-1 0-1 0 0 0-1 0-1 0 0 0 0 0-1 0 0 0 0 0 0 0-1 0-1 0-1 0 0 0-1 0-1 0 0 0 0 0-1 0 0 0 0 1 0 1h-133v344c0 9-7 16-16 16h-670c-9 0-16-7-16-16v-344h-133c0 0 0-1 0-1 0 0-1 0-1 0 0 0-1 0-1 0 0 0 0 0-1 0 0 0 0 0 0 0-1 0-1 0-1 0 0 0-1 0-1 0 0 0 0 0-1 0 0-1 0-1 0-1-1 0-1 0-1 0 0 0 0 0-1 0 0-1 0-1 0-1-1 0-1 0-1 0 0 0 0-1-1-1 0 0 0 0 0 0 0 0-1-1-1-1 0 0 0 0 0 0-1 0-1-1-1-1 0 0 0 0 0 0 0-1-1-1-1-1 0 0 0 0 0 0 0 0 0-1 0-1 0 0-1 0-1 0 0-1 0-1 0-1 0 0 0-1 0-1-1 0-1 0-1-1 0 0 0 0 0 0 0-1 0-1 0-1 0 0 0-1-1-1 0 0 0 0 0-1 0 0 0 0 0 0 0-1 0-1 0-1 0 0 0-1 0-1 0 0 0 0 0 0v-608c0 0 0 0 0-1 0 0 0 0 0 0 0-1 0-1 0-1 0 0 0-1 0-1 0 0 0-1 0-1 1 0 1 0 1-1 0 0 0 0 0 0 0-1 0-1 0-1 0 0 0-1 1-1 0 0 0 0 0 0 0-1 0-1 0-1 0 0 1-1 1-1 0 0 0 0 0-1 0 0 0 0 0 0 0 0 1 0 1 0 0 0 0-1 1-1 0 0 0 0 0 0 0-1 1-1 1-1 0-1 0-1 0-1 1 0 1 0 1 0 1-1 1-1 1-1 0 0 1 0 1 0 0 0 0-1 0-1 1 0 1 0 1 0 1 0 1 0 1 0 0 0 1 0 1-1 0 0 0 0 1 0 0 0 1 0 1 0 0 0 0 0 0 0 1 0 1 0 2 0h968c1 0 1 0 2 0 0 0 0 0 0 0 1 0 1 0 2 0 0 0 0 0 0 0 0 1 1 1 1 1 0 0 0 0 1 0 0 0 0 0 1 0 0 0 0 1 0 1 1 0 1 0 1 0 0 0 1 0 1 1 0 0 0 0 1 0 0 0 0 0 0 1 1 0 1 0 1 1 0 0 1 0 1 0 0 0 0 1 1 1 0 0 0 0 0 0 0 0 0 0 0 0 0 1 0 1 0 1 1 0 1 1 1 1z m-800 150c-6 7-16 8-23 3l-143-112v542l347-271-153-120c-7-5-8-15-3-22 3-4 8-6 13-6 3 0 6 1 9 3l160 125 85-67c3-3 7-4 10-4s7 1 10 4l85 67 343-268h-876l133 104c7 5 8 15 3 22z m423 162l347 271v-542l-347 271z m317 288l-87-68v68h87z m-757 360h638v-453l-319-249-319 249v453z m-32-428l-87 68h87v-68z" horiz-adv-x="1000" />

<glyph glyph-name="detay-arama" unicode="&#xe804;" d="M976-118l-280 292c71 72 116 170 116 280 0 218-178 396-397 396s-396-178-396-396 177-397 396-397c96 0 184 34 253 91l281-292c4-4 9-6 14-6 4 0 9 2 13 5 7 7 7 19 0 27z m-561 213c-198 0-359 161-359 359s161 358 359 358 359-161 359-358-161-359-359-359z" horiz-adv-x="1000" />

<glyph glyph-name="duyuru" unicode="&#xe805;" d="M844 592c-9 0-16-7-16-15v-32c0-8 7-15 16-15s15 7 15 15v32c0 8-7 15-15 15z m156-125c0 51-32 97-78 116v165c0 26-21 47-47 47h-31c0 0 0 0 0 0h0c0 0 0 0-1 0 0 0 0 0-1 0 0 0 0 0 0 0-1 0-1 0-1 0 0 0-1 0-1 0 0 0 0 0-1 0 0 0 0 0 0-1-1 0-1 0-1 0 0 0-1 0-1 0 0 0 0 0-1 0 0-1 0-1 0-1 0 0-1 0-1 0 0 0 0-1-1-1 0 0 0 0 0 0-93-76-216-153-428-153h-297c-60 0-109-49-109-109v-125c0-61 49-110 109-110h65l40-335c4-32 30-55 62-55h62c18 0 35 7 47 21 11 13 17 31 15 49l-39 320h45c212 0 335-77 428-152 0-1 1-1 1-1 0 0 0 0 0 0 1-1 1-1 1-1 0 0 1 0 1 0 0 0 0 0 1-1 0 0 0 0 0 0 0 0 1 0 1 0 0 0 0 0 0 0 1 0 1 0 1 0 1-1 1-1 1-1 0 0 1 0 1 0 0 0 0 0 0 0 1 0 1 0 2 0 0 0 0 0 0 0 0 0 0 0 0 0h31c26 0 47 21 47 47v165c46 19 78 65 78 116z m-631-496c1-9-2-18-8-25-6-6-14-10-23-10h-62c-16 0-29 12-31 27l0 4h68c8 0 15 7 15 16s-7 15-15 15h-72l-36 297h125l39-324z m506 199h-16v313c0 8-7 15-15 15s-16-7-16-15v-296c-84 64-193 125-359 137v206c0 8-7 15-16 15s-15-7-15-15v-204c-11 0-21 1-32 1h-297c-43 0-78 35-78 78v125c0 43 35 78 78 78h297c11 0 21 0 32 0v-16c0-8 7-15 15-15s16 7 16 15v18c166 12 275 73 359 137v-108c0-9 7-16 16-16s15 7 15 16v125h16c9 0 16-7 16-16v-176c0 0 0 0 0 0v-386c0-9-7-16-16-16z m47 216v162c28-16 47-47 47-81 0-34-19-64-47-81z" horiz-adv-x="1000" />

<glyph glyph-name="düzenle" unicode="&#xe806;" d="M952 802c-63 64-166 64-230 0l-653-652c0-1 0-1 0-1-1-1-1-1-1-2-1-1-2-2-3-4 0 0 0-1 0-1 0-1 0-1 0-1l-64-269c-1-1-1-2-1-3 0-1 0-1 0-1 0-2 1-4 1-6 0-1 1-1 1-1 1-2 2-4 3-6 2-1 4-3 6-4 2-1 5-1 7-1 2 0 3 0 4 0l269 64c1 1 1 1 1 1 1 0 2 0 2 1 2 0 3 1 4 2 0 0 1 0 1 1 0 0 1 0 1 0l652 653c64 64 64 167 0 230z m-25-25c45-45 49-116 12-166l-178 178c50 37 121 33 166-12z m-90-269l-179 179 26 26 179-179-26-26z m-747-568c-7 7-19 7-26 0l-13-14 46 194 80 9-10-92c-1-1 0-2 0-2 0-1-1-2 0-2 0-1 0-2 0-2 0-1 1-2 1-3 0-1 1-2 2-3 0-1 1-2 1-3 1-1 2-1 3-2 1-1 2-1 3-2 1 0 2-1 4-1 0 0 1 0 1 0 1-1 2-1 2-1 0 0 0 0 0 0 0 0 1 0 1 0h0c0 0 0 0 0 0 0 0 1 0 2 1l92 10-9-80-194-47 14 14c7 7 7 19 0 26z m227 99l405 405c7 7 7 19 0 26s-18 7-26 0l-405-405-86-10 10 86 405 405c7 8 7 19 0 26s-19 7-26 0l-405-405-58-6 501 501 180-180-501-501 6 58z m571 520l-179 179 26 26 179-179-26-26z" horiz-adv-x="1000" />

<glyph glyph-name="etkinlik-türü" unicode="&#xe807;" d="M236 793l-6-18c-2-4-31-91-53-194-30-142-31-241-2-293 9-16 20-28 34-36l-64-239-87-51-32 8c-11 3-22-3-25-14-3-9 1-18 8-23l256-68c8 1 15 7 17 15 3 11-3 23-14 26l-32 8-50 88 64 240c38 0 75 26 109 79 25 38 49 91 73 157 39 112 61 221 62 226l4 19-262 70z m-121-846l41 23 23-40-64 17z m277 545c-22-63-45-113-68-149-18-27-46-60-75-60-3 0-6 1-10 1-12 3-21 11-28 24-19 35-21 107-4 205h192c-2-7-4-14-7-21z m21 63h-199c1 5 2 11 4 17 15 73 35 140 45 171l186-50c-6-27-19-79-36-138z m586-558c-3 12-14 18-25 15l-32-8-87 50-65 240c15 8 27 21 36 38 28 54 26 152-3 293-22 102-51 188-52 192l-7 18-262-70 4-19c1-5 23-115 62-226 24-67 48-120 73-158 34-53 70-79 108-79 0 0 1 0 1 0l64-240-50-87-32-9c-11-3-17-14-14-25 2-9 9-15 18-15l255 68c7 5 11 14 8 22z m-448 738l186 50c10-31 29-97 45-169 1-7 3-13 4-20h-199c-17 59-30 112-36 139z m209-409c-4-1-8-2-11-2-28 0-56 33-73 60-23 36-46 86-68 149-3 7-5 14-7 22h192c20-120 9-177-4-204-8-13-17-22-29-25z m61-355l23 41 41-24-64-17z" horiz-adv-x="1000" />

<glyph glyph-name="etkinlikler" unicode="&#xe808;" d="M986-123h-37v511h12c7 0 13 6 13 13v103c0 0 0 0 0 0v0c0 0 0 0 0 0 0 1 0 1 0 1 0 0 0 1 0 1 0 0 0 0 0 0 0 1 0 1 0 1 0 0 0 1 0 1 0 0 0 0 0 1 0 0 0 0-1 0 0 0 0 0 0 1 0 0 0 0 0 0 0 0 0 1 0 1-1 0-1 0-1 0 0 1 0 1 0 1 0 0 0 0-1 0 0 1 0 1 0 1 0 0 0 0 0 0-1 1-1 1-1 1 0 0 0 0 0 0-1 0-1 1-1 1 0 0 0 0 0 0-1 0-1 0-1 1 0 0 0 0-1 0 0 0 0 0 0 0 0 0 0 0 0 0-6 3-194 108-261 153-58 39-195 175-196 177-6 5-14 5-20 0-1-2-138-138-196-177-67-45-255-150-261-153 0 0 0 0 0 0 0 0 0 0 0 0 0 0-1 0-1 0 0-1 0-1 0-1-1 0-1 0-1 0 0 0 0-1 0-1-1 0-1 0-1 0 0 0 0 0 0-1-1 0-1 0-1 0 0 0 0 0 0-1 0 0-1 0-1 0 0 0 0 0 0-1 0 0 0 0 0 0-1 0-1-1-1-1 0 0 0 0 0 0 0-1 0-1 0-1 0 0 0 0-1-1 0 0 0 0 0 0 0 0 0-1 0-1 0 0 0 0 0-1 0 0 0 0 0 0 0 0 0-1 0-1 0 0 0 0 0-1 0 0 0 0 0 0v0c0 0 0 0 0 0v-103c0-7 6-13 13-13h12v-511h-37c-8 0-14-6-14-13s6-14 14-14h51 53 87 53 484 53 87 53 51c8 0 14 6 14 14s-6 13-14 13z m-677 769c52 35 158 139 191 171 33-32 139-136 191-171 49-32 156-94 218-128h-25c-8 0-14-7-14-14s6-14 14-14h63v-75h-12-53-87-53-484-53-87-53-12v75h754c8 0 14 6 14 14s-6 14-14 14h-716c62 34 169 96 218 128z m559-258v-511h-59v511h59z m-140 0v-511h-456v511h456z m-536 0v-511h-60v511h60z m-113-511v511h26v-511h-26z m140 0v511h26v-511h-26z m536 0v511h26v-511h-26z m141 0v511h26v-511h-26z" horiz-adv-x="1000" />

<glyph glyph-name="firmalar" unicode="&#xe809;" d="M649 850h-541v-1000h784v757l-243 243z m9-57l177-176h-177v176z m-516-910v934h483v-234h233v-700h-716z m433 350c9 0 17 8 17 17s-8 17-17 17h-283c-9 0-17-8-17-17s8-17 17-17h283z m167 117h-117c-9 0-17-7-17-17s8-16 17-16h117c9 0 16 7 16 16s-7 17-16 17z m-384-17c0-9 8-16 17-16h167c9 0 16 7 16 16s-7 17-16 17h-167c-9 0-17-7-17-17z m-78 12c-3-3-5-7-5-12 0-4 2-8 5-11 3-3 7-5 12-5s8 2 12 5c3 3 4 7 4 11 0 5-1 9-4 12-7 6-18 6-24 0z m367-83c-3-3-5-7-5-12 0-4 1-9 5-12 3-3 7-5 11-5 5 0 9 2 12 5 3 3 5 8 5 12 0 4-2 9-5 12-6 6-17 6-23 0z m83 0c-3-3-5-7-5-12 0-4 2-9 5-12 3-3 7-5 12-5 4 0 8 2 12 5 3 4 4 8 4 12 0 4-1 9-4 12-7 6-18 6-24 0z m-346-81c-37-19-49-56-53-93-7 5-14 11-21 17-17 14-40-10-24-24 16-13 31-26 47-39 11-9 28-3 28 12 2 36 3 79 40 98 19 10 2 39-17 29z m224-66c-25 1-60-36-79-3-4 8-15 11-23 6-23-14-54-35-79-8-15 16-38-8-24-24 32-33 72-23 107-4 8-9 18-15 31-18 13-3 67 19 70 15 12-17 41 0 28 17-8 12-16 18-31 19z m-130 336l11 8-6 12c-5 12-13 20-24 26l-35 18c16 10 28 26 35 46 11 7 18 20 18 33v12c0 11-5 21-13 29-6 31-27 66-92 66-3 0-5-1-8-1-8 0-21 0-32 8-5 3-8 6-9 7-5 7-14 9-22 6-8-3-13-11-12-20 1-4 2-9 3-14 1-7 1-9 1-10 0 0-1-3-2-4-1-3-2-6-4-10-4-9-6-18-8-29-8-7-13-17-13-28v-12c0-13 7-26 19-33 7-20 18-36 34-46l-36-18c-10-6-18-15-23-26l-6-12 11-8c32-22 68-34 107-34 38 0 75 11 106 34z m-178 17l41 20c9 5 14 13 14 23v24l-10 4c-15 6-25 19-30 39l-3 9-8 2c-2 1-4 3-4 5v12c0 2 1 4 3 4l7 5 1 8c1 10 4 19 7 27 1 4 3 7 4 9 2 5 4 9 4 14 12-5 26-7 41-6 2 0 3 0 5 0 48 0 58-22 60-44l1-8 8-5c1 0 3-2 3-4v-12c0-2-2-4-4-5l-9-2-2-9c-5-20-15-33-30-39l-11-4v-24c0-10 6-18 14-23l40-20c-43-24-98-24-142 0z" horiz-adv-x="1000" />

<glyph glyph-name="temas-kayıtları" unicode="&#xe80a;" d="M674 548l-253 88c-24 8-51 6-74-5l-12-6c-17-8-38-10-56-3l-21 8c-1 0-3 1-4 1l-129 44c-3 1-7 1-9 0-3-2-5-4-7-7l-108-317c-3-7 1-14 7-16l130-44c1-1 3-1 4-1 2 0 4 0 5 1 3 1 5 4 7 7l104 305 13-5c24-8 52-7 75 5l12 6c17 8 38 10 55 3l244-84c-2-10-7-28-20-37-12-8-29-9-51-1l-106 36c-4 1-7 1-10-1s-5-4-6-7c-1-1-16-59-66-85-31-17-69-18-114-2-6 2-13-2-16-8-2-6 2-13 8-16 24-8 47-12 68-12 24 0 46 5 66 16 44 24 65 67 73 88l94-32c30-10 54-9 73 4 31 21 32 64 32 66 0 5-3 10-8 11z m-540-230l-106 36 101 294 103-35c1-1 2-1 3-1l0-1-101-293z m865 49l-148 300c-1 3-4 5-7 6s-7 1-9 0l-123-60c-7-4-9-11-6-17l143-293-48-44c-41-37-87-68-137-93l-235-115c-7-3-14-4-21-1-7 2-13 7-16 14-3 6-4 13-1 20 2 7 7 13 14 16l131 65c7 3 9 10 6 16-3 6-10 9-16 6l-129-63-65-32c-13-7-30-1-37 13-6 13-1 29 13 36l189 93c6 3 9 10 6 16-3 6-11 9-17 6l-140-69-49-24-23-11c-13-7-30-1-37 13-6 13-1 30 13 36l23 12 170 83c6 3 8 10 5 16-3 6-10 9-16 6l-109-54-60-29c-7-4-14-4-21-1-7 2-13 7-16 13-3 7-4 14-1 21s7 13 14 16l90 44c6 3 8 10 5 17-3 6-10 8-16 5l-90-44c-12-6-22-17-26-30-5-13-4-27 2-39 5-10 13-18 22-23-16-16-20-39-10-60 9-18 27-29 46-29 3 0 5 0 7 0-1-10 0-21 5-31 9-18 27-29 46-29 8 0 16 2 23 5l22 11c-1-9 1-19 6-28 6-12 16-22 29-26 6-2 12-3 17-3 8 0 16 2 23 5l236 116c52 25 100 58 142 97l54 49 121 59c6 4 9 11 6 17z m-129-50l-137 279 101 49 137-279-101-49z" horiz-adv-x="1000" />

<glyph glyph-name="temas-seçenekleri" unicode="&#xe80b;" d="M887 619h-51v52c0 62-51 113-114 113h-609c-62 0-113-51-113-113v-357c0-63 51-114 113-114h51v-51c0-63 51-114 114-114h459l96-113c3-4 8-6 13-6 2 0 4 0 6 1 7 2 11 9 11 16v102h24c62 0 113 51 113 114v357c0 62-51 113-113 113z m-774-385c-43 0-79 36-79 80v357c0 43 36 79 79 79h609c44 0 80-36 80-79v-52h-524c-63 0-114-51-114-113v-272h-51z m853-85c0-44-36-80-79-80h-41c-9 0-17-7-17-17v-73l-71 84c-3 4-8 6-13 6h-467c-44 0-80 36-80 80v51 34 272c0 43 36 79 80 79h524 34 51c43 0 79-36 79-79v-357z" horiz-adv-x="1000" />

<glyph glyph-name="temas-türü" unicode="&#xe80c;" d="M711 427h-616c-46 0-83-38-83-84v-337c0-47 37-84 83-84h39l-13-51c-2-7 0-13 5-17 3-3 7-4 11-4 2 0 4 0 7 1l152 71h415c46 0 83 37 83 84v337c0 46-37 84-83 84z m50-421c0-28-22-51-50-51h-419c-2 0-5 0-7-1l-124-58 10 38c1 5 0 11-3 15s-8 6-13 6h-60c-27 0-50 23-50 51v337c0 28 23 51 50 51h616c28 0 50-23 50-51v-337z m-91 324h-534c-9 0-16-8-16-17s7-16 16-16h534c9 0 16 7 16 16s-7 17-16 17z m0-91h-534c-9 0-16-8-16-17s7-16 16-16h534c9 0 16 7 16 16s-7 17-16 17z m0-91h-534c-9 0-16-8-16-17s7-16 16-16h534c9 0 16 7 16 16s-7 17-16 17z m0-91h-534c-9 0-16-8-16-17s7-17 16-17h534c9 0 16 8 16 17s-7 17-16 17z m235 793h-278c-46 0-83-37-83-83v-199c0-46 37-83 83-83h71l133-62c2-1 4-1 7-1 3 0 6 1 9 2 4 3 7 9 7 14l1 47h50c46 0 83 37 83 83v199c0 46-37 83-83 83z m50-282c0-27-22-50-50-50h-66c-9 0-17-7-17-16l0-38-113 52c-3 1-5 2-7 2h-75c-28 0-50 23-50 50v199c0 27 22 50 50 50h278c28 0 50-23 50-50v-199z m-189 210c-40 0-72-32-72-71 0-10 8-17 17-17s16 7 16 17c0 21 18 38 39 38s39-17 39-38c0-14-7-26-19-33-25-15-40-42-39-70 0-9 8-16 17-16 0 0 0 0 0 0 9 0 16 8 16 17-1 16 8 32 23 40 0 0 0 0 1 1 21 13 34 35 34 61 0 39-33 71-72 71z m-2-207c-5 0-9-2-12-5-3-3-5-7-5-11 0-5 2-9 5-12 3-3 7-5 12-5 4 0 8 2 11 5 3 3 5 7 5 12 0 4-2 8-5 11-3 3-7 5-11 5z" horiz-adv-x="1000" />

<glyph glyph-name="yayın-türü" unicode="&#xe80d;" d="M950 625h-33v50h-167v-50h-67v97c0 29-24 53-53 53h-260c-29 0-53-24-53-53v-97h-67v50h-167v-50h-33c-27 0-50-22-50-50v-600c0-28 23-50 50-50h900c28 0 50 22 50 50v600c0 28-22 50-50 50z m-167 17h100v-17h-100v17z m-433 80c0 11 9 20 20 20h260c11 0 20-9 20-20v-97h-300v97z m-33-130h366 67 83v-634h-666v634h83 67z m-200 50h100v-17h-100v17z m-84-667v600c0 9 8 17 17 17h33 50v-634h-83c-9 0-17 8-17 17z m934 0c0-9-8-17-17-17h-83v634h50 33c9 0 17-8 17-17v-600z" horiz-adv-x="1000" />

<glyph glyph-name="ziyaretçi" unicode="&#xe80e;" d="M872 112c-3-3-5-8-5-12s1-9 5-12c3-3 7-5 11-5s9 2 12 5c3 3 5 8 5 12s-2 9-5 12c-6 6-17 6-23 0z m-478 34l-61 31v6c28 15 47 39 57 73 16 8 27 25 27 44v16c0 16-7 30-19 40-11 63-55 95-131 95-4 0-7-1-11-1-14-1-35 0-54 12-6 5-12 10-15 14-5 7-15 9-23 6-9-4-14-12-12-21 0-6 1-13 3-21 3-17 3-17-1-26-2-4-4-8-7-15-5-13-9-28-11-44-12-9-19-23-19-39v-16c0-19 10-36 26-44 11-34 30-58 57-73v-6l-63-31c-23-13-37-37-37-63v-22c0-13 0-45 167-45s166 32 166 45v21c0 27-15 51-39 64z m6-81c-10-6-53-15-133-15s-123 9-134 15v18c0 14 8 27 20 33l64 32c10 5 16 15 16 26v30l-10 5c-25 11-41 31-50 63l-2 9-9 3c-7 2-12 9-12 16v16c0 6 4 12 9 15l8 4 1 9c1 16 5 30 10 43 2 5 4 9 6 13 5 12 7 18 6 31 20-11 43-16 69-14 2 0 5 0 8 0 62 0 93-22 99-73l1-9 7-4c6-3 9-8 9-15v-16c0-7-4-14-11-16l-9-3-3-9c-8-32-25-52-50-63l-10-5v-30c0-11 6-21 16-26l63-32 0 0c13-7 21-20 21-34v-17z m117 301h166c10 0 17 8 17 17s-7 17-17 17h-166c-9 0-17-8-17-17s8-17 17-17z m16-250h-16c-9 0-17-7-17-16s8-17 17-17h16c10 0 17 8 17 17s-7 16-17 16z m100 0h-33c-9 0-17-7-17-16s8-17 17-17h33c10 0 17 8 17 17s-7 16-17 16z m84 0h-17c-9 0-17-7-17-16s8-17 17-17h17c9 0 16 8 16 17s-7 16-16 16z m100 0h-34c-9 0-16-7-16-16s7-17 16-17h34c9 0 16 8 16 17s-7 16-16 16z m66 184h-366c-9 0-17-8-17-17s8-17 17-17h366c10 0 17 8 17 17s-7 17-17 17z m0-100h-366c-9 0-17-8-17-17s8-17 17-17h366c10 0 17 8 17 17s-7 17-17 17z m39 417h-305v128c0 21-18 38-39 38h-156c-21 0-39-17-39-38v-128h-305c-43 0-78-35-78-78v-544c0-43 35-78 78-78h844c43 0 78 35 78 78v544c0 43-35 78-78 78z m-505 128c0 3 2 5 5 5h156c3 0 5-2 5-5v-128-95c0-3-2-5-5-5h-156c-3 0-5 2-5 5v95 128z m550-750c0-25-20-45-45-45h-844c-25 0-45 20-45 45v544c0 24 20 44 45 44h305v-61c0-21 18-39 39-39h156c21 0 39 18 39 39v61h305c25 0 45-20 45-44v-544z m-467 605c37 0 67 30 67 67s-30 66-67 66-67-30-67-66 30-67 67-67z m0 100c18 0 33-15 33-33s-15-34-33-34-33 15-33 34 15 33 33 33z" horiz-adv-x="1000" />

<glyph glyph-name="kişi-türü" unicode="&#xe80f;" d="M675 477c-42 35-86 59-103 67v60c10 9 15 21 15 34v74c0 44-36 79-79 79h-16c-43 0-79-35-79-79v-74c0-13 6-25 15-34v-60c-17-8-61-32-103-67-11-9-17-22-17-37v-51c0-6 5-12 12-12s12 6 12 12v51c0 7 3 14 9 18 45 37 94 62 103 67 5 2 8 8 8 13v72c0 4-2 8-5 10-6 4-9 11-9 18v74c0 30 24 55 54 55h16c30 0 55-25 55-55v-74c0-7-4-14-10-18-3-2-5-6-5-10v-71c0-6 3-12 8-14 10-5 59-29 104-66 5-5 8-12 8-19v-51c0-6 6-12 12-12s13 6 13 12v51c0 15-7 28-18 37z m307-468c-41 35-86 59-102 67v60c9 9 14 21 14 34v74c0 43-35 79-79 79h-15c-44 0-79-36-79-79v-74c0-13 5-25 14-34v-60c-16-8-61-32-102-67-12-9-18-22-18-37v-51c0-7 6-12 12-12s12 5 12 12v51c0 7 4 14 9 18 45 37 94 62 103 67 5 2 9 8 9 14v71c0 4-2 8-6 10-5 4-9 11-9 18v74c0 30 25 54 55 54h15c30 0 55-24 55-54v-74c0-7-3-14-9-18-4-2-6-6-6-10v-71c0-6 3-12 9-14 9-5 58-30 103-67 5-4 9-11 9-18v-51c0-7 5-12 12-12s12 5 12 12v51c0 15-6 28-18 37z m-614 0c-42 35-87 59-103 67v60c9 9 15 21 15 34v74c0 43-36 79-79 79h-16c-44 0-79-36-79-79v-74c0-13 5-25 15-34v-60c-17-8-62-32-103-67-12-9-18-22-18-37v-51c0-7 6-12 12-12 7 0 13 5 13 12v51h0c0 7 3 14 8 18 45 37 94 62 103 67 6 2 9 8 9 14v71c0 4-2 8-6 10-5 4-9 11-9 18v74c0 30 25 54 55 54h16c30 0 54-24 54-54v-74c0-7-3-14-9-18-4-2-6-6-6-10v-71c0-6 3-12 9-14 9-5 58-30 103-67 6-4 9-11 9-18v-51c0-7 5-12 12-12s12 5 12 12v51c0 15-6 28-17 37z m265 158l-119 68v138c0 7-6 12-12 12-7 0-13-5-13-12v-138l-119-68c-6-4-8-11-4-17 2-4 6-6 10-6 2 0 4 0 6 1l120 69 119-69c2-1 4-1 6-1 4 0 8 2 11 6 3 6 1 13-5 17z" horiz-adv-x="1000" />

<glyph glyph-name="kullanıcı-yönetimi" unicode="&#xe810;" d="M459 83c-11 0-20-9-20-20v-10c0-11 9-20 20-20 11 0 21 9 21 20v10c0 11-10 20-21 20z m504 155l-61 51c3 20 4 40 4 61 0 21-1 41-4 62l61 50c19 16 24 44 12 66l-84 144c-9 16-26 26-44 26-7 0-13-1-19-3l-74-28c-32 26-68 47-107 62l-13 78c-4 25-25 43-51 43h-166c-26 0-47-18-51-43l-13-78c-39-15-75-36-107-62l-74 28c-6 2-12 3-19 3-18 0-35-10-44-26l-84-144c-12-22-7-50 12-66l62-50c-4-21-5-41-5-62 0-21 1-41 5-61l-62-51c-19-16-24-44-12-66l84-144c9-16 26-26 44-26 7 0 13 1 19 3l74 28c32-26 68-47 107-62l13-78c4-25 25-43 51-43h166c26 0 47 18 51 43l13 78c39 15 75 36 107 62l74-28c6-2 12-3 19-3 18 0 35 10 44 26l84 144c12 22 7 50-12 66z m-380-347h-103v96c0 12-10 21-21 21-11 0-20-9-20-21v-96h-22v224c27-10 55-15 84-15 0 0 0 0 0 0 29 0 58 5 84 15v-224h0c0 0-1 0-2 0z m-82 250h0c-115 0-209 94-209 209 0 67 32 129 85 168v-149c0-8 3-14 10-18l104-62c6-4 14-4 21 0l104 62c6 4 10 10 10 18v149c53-39 84-101 84-168 0-56-22-108-61-148-40-39-92-61-148-61z m438 52l-83-145c-3-4-8-6-13-5l-86 33c-7 2-14 1-20-4-33-28-70-50-111-65v127c19 10 36 24 52 40 47 47 73 109 73 176 0 94-52 179-136 222-7 3-14 3-20-1-6-3-10-10-10-17v-174l-84-50-84 50v174c0 7-3 14-9 17-6 4-14 4-20 1-84-43-136-128-136-222 0-68 26-131 74-178 16-15 33-28 51-38v-128c-42 15-80 37-114 66-4 3-8 5-13 5-2 0-5-1-7-1l-86-33c-1 0-2 0-4 0-3 0-7 2-9 5l-83 145c-3 4-2 10 2 14l71 58c5 4 8 12 7 19-4 22-6 44-6 66 0 22 2 44 6 66 1 7-2 15-7 20l-71 58c-4 3-5 9-2 13l83 145c3 4 8 7 13 5l86-32c7-3 15-2 20 3 34 29 73 51 115 66 7 3 12 9 13 16l15 90c1 5 5 9 11 9h166c6 0 10-4 11-9l15-90c1-7 6-13 13-16 42-15 81-37 115-66 6-5 13-6 20-3l86 32c1 0 2 0 4 0 3 0 7-2 9-5l83-145c3-4 2-10-2-13l-71-58c-5-5-8-13-7-20 4-22 6-44 6-66 0-22-2-44-6-66-1-7 2-15 7-19l71-58c4-4 5-10 2-14z" horiz-adv-x="1000" />

<glyph glyph-name="ok" unicode="&#xe811;" d="M304 350l452 452c11 11 11 29 0 40s-29 11-40 0l-472-472c-11-11-11-29 0-40l472-472c5-5 13-8 20-8s14 3 20 8c11 11 11 29 0 40l-452 452z" horiz-adv-x="1000" />

<glyph glyph-name="seçmeli-alanlar" unicode="&#xe812;" d="M1000 746l-26 26-104-105v118h-870v-870h870v700l130 131z m-167-794h-796v796h796v-118l-405-404-191 190-26-26 217-217 405 405v-626z" horiz-adv-x="1000" />

<glyph glyph-name="sil" unicode="&#xe813;" d="M966 703h-118-175v147h-346v-147h-165-128v-41h132l92-812h494l92 812h122l0 41 0 0z m-598 106h264v-106h-264v106z m348-918h-422l-87 771h120 346 130l-87-771z" horiz-adv-x="1000" />

<glyph glyph-name="kapat" unicode="&#xe814;" d="" horiz-adv-x="1000" />
</font>
</defs>
</svg>
